<?xml version="1.0" encoding="UTF-8"?><svg id="Layer_1" xmlns="http://www.w3.org/2000/svg" width="285.07" height="6" viewBox="0 0 285.07 6"><polygon id="cable" points="0 1.77 253.22 1.77 253.22 4.23 .13 4.23 0 1.77" fill="#4b5059"/><g id="head"><path d="M268.25,0h-17.09s-.65.06-.65.94v4.12c0,.88.65.94.65.94h17.09c2.69,0,2.68-2.75,2.67-3,0-.25.02-3-2.67-3Z"/><path d="M284.08,3.88h-15.33c-.55,0-.99-.26-.99-.91,0-.68.44-.91.99-.91h15.33c.55,0,.99.23.99.91s-.44.91-.99.91Z" fill="#d89e53"/></g></svg>