<?xml version="1.0" encoding="UTF-8"?><svg xmlns="http://www.w3.org/2000/svg" width="143.74" height="5.86" viewBox="0 0 143.74 5.86"><g id="cable"><polygon id="cable-2" points="0 1.72 112.64 1.72 112.64 4.13 .06 4.13 0 1.72" fill="#b92840"/></g><g id="head"><g id="head-2"><path d="M127.32,0h-16.68s-.63.06-.63.92v4.02c0,.86.63.92.63.92h16.68c2.63,0,2.62-2.69,2.61-2.93,0-.24.02-2.93-2.61-2.93Z"/><path d="M142.77,3.79h-14.96c-.54,0-.97-.25-.97-.89,0-.67.43-.89.97-.89h14.96c.54,0,.97.22.97.89s-.43.89-.97.89Z" fill="#d89e53"/></g></g></svg>