<?xml version="1.0" encoding="UTF-8"?><svg xmlns="http://www.w3.org/2000/svg" width="246.38mm" height="152.59mm" viewBox="0 0 698.4 432.54"><defs><style>.cls-1,.cls-2,.cls-3{stroke:#000;}.cls-1,.cls-2,.cls-3,.cls-4{stroke-miterlimit:10;}.cls-1,.cls-3,.cls-4{stroke-width:.5px;}.cls-1,.cls-4{fill:none;}.cls-5{font-size:5.07px;letter-spacing:-.07em;}.cls-5,.cls-6,.cls-7,.cls-8,.cls-9{fill:#231f20;font-family:OCRAExtended, 'OCR A Extended';}.cls-6{font-size:5.51px;letter-spacing:-.07em;}.cls-7{font-size:8.22px;letter-spacing:-.05em;}.cls-10{fill:#c72026;}.cls-8{letter-spacing:-.07em;}.cls-8,.cls-9{font-size:12px;}.cls-4{stroke:#231f20;}</style></defs><g id="Static"><g id="Input"><g id="D"><line class="cls-4" x1="50.72" y1="160.52" x2="50.72" y2="233.73"/><line class="cls-4" x1="50.72" y1="107.51" x2="50.72" y2="127.48"/><line class="cls-4" x1="46.96" y1="62.41" x2="53.23" y2="62.41"/><line class="cls-4" x1="46.96" y1="270.81" x2="53.23" y2="270.81"/><polyline class="cls-1" points="20.57 339.69 22.89 337.37 25.14 339.62"/><line class="cls-1" x1="34.28" y1="107.51" x2="34.28" y2="180.84"/><line class="cls-1" x1="34.28" y1="213.65" x2="34.28" y2="287.15"/><line class="cls-1" x1="34.28" y1="319.97" x2="34.28" y2="363.73"/><polyline class="cls-1" points="34.28 358.33 22.9 358.33 22.9 354.41"/><rect class="cls-3" x="21" y="350.94" width="3.79" height="3.47"/><rect class="cls-3" x="21" y="345.27" width="3.79" height="3.47"/><line class="cls-1" x1="22.9" y1="337.63" x2="22.9" y2="345.15"/><rect class="cls-1" x="30.31" y="74.69" width="7.95" height="32.81"/><rect class="cls-1" x="46.75" y="74.69" width="7.95" height="32.81"/><rect class="cls-1" x="46.75" y="127.71" width="7.95" height="32.81"/><rect class="cls-1" x="46.82" y="233.73" width="7.95" height="32.81"/><rect class="cls-1" x="30.31" y="180.84" width="7.95" height="32.81"/><rect class="cls-1" x="30.31" y="287.15" width="7.95" height="32.81"/><g id="Font"><text class="cls-7" transform="translate(17.88 336.16)"><tspan x="0" y="0">5V</tspan></text><text class="cls-6" transform="translate(30.12 355.3) rotate(-90)"><tspan x="0" y="0">R27</tspan></text><text class="cls-5" transform="translate(43.23 319.21) rotate(-90) scale(1.54 1)"><tspan x="0" y="0">X39</tspan></text><text class="cls-5" transform="translate(43.23 213.37) rotate(-90) scale(1.54 1)"><tspan x="0" y="0">X27</tspan></text><text class="cls-5" transform="translate(43.23 105.23) rotate(-90) scale(1.54 1)"><tspan x="0" y="0">X7</tspan></text><text class="cls-5" transform="translate(59.68 105.23) rotate(-90) scale(1.54 1)"><tspan x="0" y="0">X8</tspan></text><text class="cls-5" transform="translate(59.68 160.52) rotate(-90) scale(1.54 1)"><tspan x="0" y="0">X15</tspan></text><text class="cls-5" transform="translate(59.65 266.55) rotate(-90) scale(1.54 1)"><tspan x="0" y="0">X31</tspan></text><text class="cls-9" transform="translate(30.7 71.88)"><tspan x="0" y="0">D</tspan></text><text class="cls-9" transform="translate(46.68 72.16)"><tspan x="0" y="0">D</tspan></text><text class="cls-9" transform="translate(46.68 280.56)"><tspan x="0" y="0">D</tspan></text></g></g><g id="C"><line class="cls-4" x1="83.67" y1="160.52" x2="83.67" y2="233.73"/><line class="cls-4" x1="83.67" y1="107.51" x2="83.67" y2="127.48"/><polyline class="cls-1" points="53.53 339.69 55.84 337.37 58.09 339.62"/><line class="cls-1" x1="67.23" y1="107.51" x2="67.23" y2="180.84"/><line class="cls-1" x1="67.23" y1="213.65" x2="67.23" y2="287.15"/><line class="cls-1" x1="67.23" y1="319.97" x2="67.23" y2="363.73"/><polyline class="cls-1" points="67.23 358.33 55.85 358.33 55.85 354.41"/><rect class="cls-3" x="53.95" y="350.94" width="3.79" height="3.47"/><rect class="cls-3" x="53.95" y="345.27" width="3.79" height="3.47"/><line class="cls-1" x1="55.85" y1="337.63" x2="55.85" y2="345.15"/><rect class="cls-1" x="63.24" y="74.69" width="7.95" height="32.81"/><rect class="cls-1" x="79.64" y="74.69" width="7.95" height="32.81"/><rect class="cls-1" x="79.64" y="127.71" width="7.95" height="32.81"/><rect class="cls-1" x="79.64" y="233.73" width="7.95" height="32.81"/><rect class="cls-1" x="63.25" y="180.84" width="7.95" height="32.81"/><rect class="cls-1" x="63.19" y="287.15" width="7.95" height="32.81"/><g id="Typo"><text class="cls-9" transform="translate(62.7 72.16)"><tspan x="0" y="0">C</tspan></text><text class="cls-9" transform="translate(79.32 72.16)"><tspan x="0" y="0">C</tspan></text><text class="cls-9" transform="translate(79.32 280.75)"><tspan x="0" y="0">C</tspan></text><text class="cls-7" transform="translate(50.81 336.16)"><tspan x="0" y="0">5V</tspan></text><text class="cls-6" transform="translate(63.05 355.3) rotate(-90)"><tspan x="0" y="0">R28</tspan></text><text class="cls-5" transform="translate(76.16 319.21) rotate(-90) scale(1.54 1)"><tspan x="0" y="0">x40</tspan></text><text class="cls-5" transform="translate(76.16 213.37) rotate(-90) scale(1.54 1)"><tspan x="0" y="0">X28</tspan></text><text class="cls-5" transform="translate(76.16 105.23) rotate(-90) scale(1.54 1)"><tspan x="0" y="0">X9</tspan></text><text class="cls-5" transform="translate(92.61 107.05) rotate(-90) scale(1.54 1)"><tspan x="0" y="0">X10</tspan></text><text class="cls-5" transform="translate(92.61 160.52) rotate(-90) scale(1.54 1)"><tspan x="0" y="0">X16</tspan></text><text class="cls-5" transform="translate(92.58 266.55) rotate(-90) scale(1.54 1)"><tspan x="0" y="0">X32</tspan></text><text class="cls-5" transform="translate(124.87 266.55) rotate(-90) scale(1.54 1)"><tspan x="0" y="0">X33</tspan></text></g><line class="cls-4" x1="80.42" y1="62.55" x2="86.69" y2="62.55"/><line class="cls-4" x1="80.42" y1="271.14" x2="86.69" y2="271.14"/></g><g id="B"><line class="cls-4" x1="116.24" y1="160.52" x2="116.24" y2="233.73"/><line class="cls-4" x1="116.24" y1="107.51" x2="116.24" y2="127.48"/><polyline class="cls-1" points="86.09 339.69 88.41 337.37 90.66 339.62"/><line class="cls-1" x1="99.8" y1="107.51" x2="99.8" y2="180.84"/><line class="cls-1" x1="99.8" y1="213.65" x2="99.8" y2="287.15"/><line class="cls-1" x1="99.8" y1="319.97" x2="99.8" y2="363.73"/><polyline class="cls-1" points="99.8 358.33 88.42 358.33 88.42 354.41"/><rect class="cls-3" x="86.52" y="350.94" width="3.79" height="3.47"/><rect class="cls-3" x="86.52" y="345.27" width="3.79" height="3.47"/><line class="cls-1" x1="88.42" y1="337.63" x2="88.42" y2="345.15"/><rect class="cls-1" x="95.8" y="74.69" width="7.95" height="32.81"/><rect class="cls-1" x="112.21" y="74.69" width="7.95" height="32.81"/><rect class="cls-1" x="112.21" y="127.71" width="7.95" height="32.81"/><rect class="cls-1" x="112.21" y="233.73" width="7.95" height="32.81"/><rect class="cls-1" x="95.82" y="180.84" width="7.95" height="32.81"/><rect class="cls-1" x="95.76" y="287.15" width="7.95" height="32.81"/><line class="cls-4" x1="112.99" y1="62.55" x2="119.26" y2="62.55"/><line class="cls-4" x1="112.99" y1="271.14" x2="119.26" y2="271.14"/><g id="Typo-2"><text class="cls-9" transform="translate(96.51 72.16)"><tspan x="0" y="0">B</tspan></text><text class="cls-9" transform="translate(112.6 72.16)"><tspan x="0" y="0">B</tspan></text><text class="cls-9" transform="translate(112.67 280.75)"><tspan x="0" y="0">B</tspan></text><text class="cls-7" transform="translate(83.38 336.16)"><tspan x="0" y="0">5V</tspan></text><text class="cls-6" transform="translate(95.62 355.3) rotate(-90)"><tspan x="0" y="0">R29</tspan></text><text class="cls-5" transform="translate(108.73 319.21) rotate(-90) scale(1.54 1)"><tspan x="0" y="0">x41</tspan></text><text class="cls-5" transform="translate(108.73 213.37) rotate(-90) scale(1.54 1)"><tspan x="0" y="0">X29</tspan></text><text class="cls-5" transform="translate(125.18 107.05) rotate(-90) scale(1.54 1)"><tspan x="0" y="0">X12</tspan></text><text class="cls-5" transform="translate(108.75 107.05) rotate(-90) scale(1.54 1)"><tspan x="0" y="0">X11</tspan></text><text class="cls-5" transform="translate(125.18 160.52) rotate(-90) scale(1.54 1)"><tspan x="0" y="0">X17</tspan></text></g><rect class="cls-1" x="96.02" y="74.69" width="7.95" height="32.81"/><rect class="cls-1" x="112.18" y="74.69" width="7.95" height="32.81"/><rect class="cls-1" x="112.18" y="127.71" width="7.95" height="32.81"/><rect class="cls-1" x="112.18" y="233.73" width="7.95" height="32.81"/><rect class="cls-1" x="96.02" y="180.84" width="7.95" height="32.81"/><rect class="cls-1" x="95.87" y="287.15" width="7.95" height="32.81"/></g><g id="A"><line class="cls-4" x1="148.95" y1="160.52" x2="148.95" y2="233.73"/><line class="cls-4" x1="148.95" y1="107.51" x2="148.95" y2="127.48"/><polyline class="cls-1" points="118.81 339.69 121.13 337.37 123.38 339.62"/><line class="cls-1" x1="132.51" y1="107.51" x2="132.51" y2="180.84"/><line class="cls-1" x1="132.51" y1="213.65" x2="132.51" y2="287.15"/><line class="cls-1" x1="132.51" y1="319.97" x2="132.51" y2="363.73"/><polyline class="cls-1" points="132.51 358.33 121.13 358.33 121.13 354.41"/><rect class="cls-3" x="119.24" y="350.94" width="3.79" height="3.47"/><rect class="cls-3" x="119.24" y="345.27" width="3.79" height="3.47"/><line class="cls-1" x1="121.13" y1="337.63" x2="121.13" y2="345.15"/><rect class="cls-1" x="128.52" y="74.69" width="7.95" height="32.81"/><rect class="cls-1" x="144.92" y="74.69" width="7.95" height="32.81"/><rect class="cls-1" x="144.92" y="127.71" width="7.95" height="32.81"/><rect class="cls-1" x="144.92" y="233.73" width="7.95" height="32.81"/><rect class="cls-1" x="128.54" y="180.84" width="7.95" height="32.81"/><rect class="cls-1" x="128.47" y="287.15" width="7.95" height="32.81"/><line class="cls-4" x1="145.7" y1="62.55" x2="151.97" y2="62.55"/><line class="cls-4" x1="145.7" y1="271.14" x2="151.97" y2="271.14"/><g id="Typo_copy"><text class="cls-9" transform="translate(129.22 72.16)"><tspan x="0" y="0">A</tspan></text><text class="cls-9" transform="translate(145.31 72.16)"><tspan x="0" y="0">A</tspan></text><text class="cls-9" transform="translate(145.38 280.75)"><tspan x="0" y="0">A</tspan></text><text class="cls-7" transform="translate(116.09 336.16)"><tspan x="0" y="0">5V</tspan></text><text class="cls-6" transform="translate(128.33 355.3) rotate(-90)"><tspan x="0" y="0">R30</tspan></text><text class="cls-5" transform="translate(141.44 319.21) rotate(-90) scale(1.54 1)"><tspan x="0" y="0">x42</tspan></text><text class="cls-5" transform="translate(141.44 213.37) rotate(-90) scale(1.54 1)"><tspan x="0" y="0">X30t</tspan></text><text class="cls-5" transform="translate(157.89 107.05) rotate(-90) scale(1.54 1)"><tspan x="0" y="0">X14</tspan></text><text class="cls-5" transform="translate(141.46 107.05) rotate(-90) scale(1.54 1)"><tspan x="0" y="0">X13</tspan></text><text class="cls-5" transform="translate(157.89 160.52) rotate(-90) scale(1.54 1)"><tspan x="0" y="0">X18</tspan></text><text class="cls-5" transform="translate(157.63 266.55) rotate(-90) scale(1.54 1)"><tspan x="0" y="0">X34</tspan></text></g><rect class="cls-1" x="144.89" y="74.69" width="7.95" height="32.81"/><rect class="cls-1" x="144.89" y="127.71" width="7.95" height="32.81"/><rect class="cls-1" x="144.89" y="233.73" width="7.95" height="32.81"/><rect class="cls-1" x="128.74" y="180.84" width="7.95" height="32.81"/><rect class="cls-1" x="128.58" y="287.15" width="7.95" height="32.81"/></g><polyline class="cls-4" points="14.1 401.38 14.1 58.26 160.02 58.26 160.02 418.54 32.11 418.54"/><text class="cls-8" transform="translate(31.18 409.17)"><tspan x="0" y="0">D</tspan></text><text class="cls-8" transform="translate(63.3 409.17)"><tspan x="0" y="0">C</tspan></text><text class="cls-8" transform="translate(95.91 409.17)"><tspan x="0" y="0">B</tspan></text><text class="cls-8" transform="translate(128.7 409.17)"><tspan x="0" y="0">A</tspan></text></g></g><g id="Input-2"><g id="Positive"><g id="D-2"><g id="D_Top"><circle id="inputPositiveDTop1" class="cls-2" cx="34.28" cy="78.96" r="2.46"/><circle id="inputPositiveDTop2" class="cls-2" cx="34.28" cy="87.01" r="2.46"/><circle id="inputPositiveDTop3" class="cls-2" cx="34.28" cy="95.06" r="2.46"/><circle id="inputPositiveDTop4" class="cls-2" cx="34.28" cy="103.11" r="2.46"/></g><g id="D_Mid"><circle id="inputPositiveDMid1" class="cls-2" cx="34.28" cy="184.99" r="2.46"/><circle id="inputPositiveDMid2" class="cls-2" cx="34.28" cy="193.05" r="2.46"/><circle id="inputPositiveDMid3" class="cls-2" cx="34.28" cy="201.1" r="2.46"/><circle id="inputPositiveDMid4" class="cls-2" cx="34.28" cy="209.15" r="2.46"/></g><g id="D_Bottom"><circle id="inputPositiveDBot1" class="cls-2" cx="34.28" cy="291.18" r="2.46"/><circle id="inputPositiveDBot2" class="cls-2" cx="34.28" cy="299.24" r="2.46"/><circle id="inputPositiveDBot3" class="cls-2" cx="34.28" cy="307.29" r="2.46"/><circle id="inputPositiveDBot4" class="cls-2" cx="34.28" cy="315.34" r="2.46"/></g></g><g id="C-2"><g id="C_Top"><circle class="cls-2" cx="67.23" cy="78.96" r="2.46"/><circle class="cls-2" cx="67.23" cy="87.01" r="2.46"/><circle class="cls-2" cx="67.23" cy="95.06" r="2.46"/><circle class="cls-2" cx="67.23" cy="103.11" r="2.46"/></g><g id="C_Mid"><circle class="cls-2" cx="67.23" cy="193.05" r="2.46"/><circle class="cls-2" cx="67.23" cy="184.99" r="2.46"/><circle class="cls-2" cx="67.23" cy="201.1" r="2.46"/><circle class="cls-2" cx="67.23" cy="209.15" r="2.46"/></g><g id="C_Bottom"><circle class="cls-2" cx="67.23" cy="299.24" r="2.46"/><circle class="cls-2" cx="67.23" cy="291.18" r="2.46"/><circle class="cls-2" cx="67.23" cy="307.29" r="2.46"/><circle class="cls-2" cx="67.23" cy="315.34" r="2.46"/></g></g><g id="B-2"><g id="B_Top"><circle class="cls-2" cx="99.84" cy="78.96" r="2.46"/><circle class="cls-2" cx="99.84" cy="87.01" r="2.46"/><circle class="cls-2" cx="99.84" cy="95.06" r="2.46"/><circle class="cls-2" cx="99.84" cy="103.11" r="2.46"/></g><g id="B_Mid"><circle class="cls-2" cx="99.84" cy="193.05" r="2.46"/><circle class="cls-2" cx="99.84" cy="184.99" r="2.46"/><circle class="cls-2" cx="99.84" cy="201.1" r="2.46"/><circle class="cls-2" cx="99.84" cy="209.15" r="2.46"/></g><g id="B_Bottom"><circle class="cls-2" cx="99.84" cy="299.24" r="2.46"/><circle class="cls-2" cx="99.84" cy="291.18" r="2.46"/><circle class="cls-2" cx="99.84" cy="307.29" r="2.46"/><circle class="cls-2" cx="99.84" cy="315.34" r="2.46"/></g></g><g id="A-2"><g id="A_Top"><circle class="cls-2" cx="132.55" cy="78.96" r="2.46"/><circle class="cls-2" cx="132.55" cy="87.01" r="2.46"/><circle class="cls-2" cx="132.55" cy="95.06" r="2.46"/><circle class="cls-2" cx="132.55" cy="103.11" r="2.46"/></g><g id="A_Mid"><circle class="cls-2" cx="132.55" cy="193.05" r="2.46"/><circle class="cls-2" cx="132.55" cy="184.99" r="2.46"/><circle class="cls-2" cx="132.55" cy="201.1" r="2.46"/><circle class="cls-2" cx="132.55" cy="209.15" r="2.46"/></g><g id="A_Bottom"><circle class="cls-2" cx="132.55" cy="299.24" r="2.46"/><circle class="cls-2" cx="132.55" cy="291.18" r="2.46"/><circle class="cls-2" cx="132.55" cy="307.29" r="2.46"/><circle class="cls-2" cx="132.55" cy="315.34" r="2.46"/></g></g></g><g id="Negative"><g id="D-3"><g id="D_"><circle id="inputNegativeDTop1" class="cls-2" cx="50.72" cy="78.96" r="2.46"/><circle id="inputNegativeDTop2" class="cls-2" cx="50.72" cy="87.01" r="2.46"/><circle id="inputNegativeDTop3" class="cls-2" cx="50.72" cy="95.06" r="2.46"/><circle id="inputNegativeDTop4" class="cls-2" cx="50.72" cy="103.11" r="2.46"/></g><circle class="cls-2" cx="50.72" cy="140.03" r="2.46"/><circle class="cls-2" cx="50.72" cy="131.97" r="2.46"/><circle class="cls-2" cx="50.72" cy="148.08" r="2.46"/><circle class="cls-2" cx="50.72" cy="156.13" r="2.46"/><circle class="cls-2" cx="50.72" cy="246.2" r="2.46"/><circle class="cls-2" cx="50.72" cy="238.15" r="2.46"/><circle class="cls-2" cx="50.72" cy="254.25" r="2.46"/><circle class="cls-2" cx="50.72" cy="262.31" r="2.46"/></g><g id="C-3"><circle class="cls-2" cx="83.53" cy="87.01" r="2.46"/><circle class="cls-2" cx="83.53" cy="78.96" r="2.46"/><circle class="cls-2" cx="83.53" cy="95.06" r="2.46"/><circle class="cls-2" cx="83.53" cy="103.11" r="2.46"/><circle class="cls-2" cx="83.53" cy="140.03" r="2.46"/><circle class="cls-2" cx="83.53" cy="131.97" r="2.46"/><circle class="cls-2" cx="83.53" cy="148.08" r="2.46"/><circle class="cls-2" cx="83.53" cy="156.13" r="2.46"/><circle class="cls-2" cx="83.53" cy="246.2" r="2.46"/><circle class="cls-2" cx="83.53" cy="238.15" r="2.46"/><circle class="cls-2" cx="83.53" cy="254.25" r="2.46"/><circle class="cls-2" cx="83.53" cy="262.31" r="2.46"/></g><g id="B-3"><circle class="cls-2" cx="116.15" cy="87.01" r="2.46"/><circle class="cls-2" cx="116.15" cy="78.96" r="2.46"/><circle class="cls-2" cx="116.15" cy="95.06" r="2.46"/><circle class="cls-2" cx="116.15" cy="103.11" r="2.46"/><circle class="cls-2" cx="116.15" cy="140.03" r="2.46"/><circle class="cls-2" cx="116.15" cy="131.97" r="2.46"/><circle class="cls-2" cx="116.15" cy="148.08" r="2.46"/><circle class="cls-2" cx="116.15" cy="156.13" r="2.46"/><circle class="cls-2" cx="116.15" cy="246.2" r="2.46"/><circle class="cls-2" cx="116.15" cy="238.15" r="2.46"/><circle class="cls-2" cx="116.15" cy="254.25" r="2.46"/><circle class="cls-2" cx="116.15" cy="262.31" r="2.46"/></g><g id="A-3"><circle class="cls-2" cx="148.96" cy="87.01" r="2.46"/><circle class="cls-2" cx="148.96" cy="78.96" r="2.46"/><circle class="cls-2" cx="148.96" cy="95.06" r="2.46"/><circle class="cls-2" cx="148.96" cy="103.11" r="2.46"/><circle class="cls-2" cx="148.96" cy="140.03" r="2.46"/><circle class="cls-2" cx="148.96" cy="131.97" r="2.46"/><circle class="cls-2" cx="148.96" cy="148.08" r="2.46"/><circle class="cls-2" cx="148.96" cy="156.13" r="2.46"/><circle class="cls-2" cx="148.96" cy="246.2" r="2.46"/><circle class="cls-2" cx="148.96" cy="238.15" r="2.46"/><circle class="cls-2" cx="148.96" cy="254.25" r="2.46"/><circle class="cls-2" cx="148.96" cy="262.31" r="2.46"/></g></g><rect id="inputD" class="cls-10" x="29.01" y="363.73" width="10.54" height="29.81"/><rect id="inputC" class="cls-10" x="61.96" y="363.73" width="10.54" height="29.81"/><rect id="inputB" class="cls-10" x="94.47" y="363.73" width="10.54" height="29.81"/><rect id="inputA" class="cls-10" x="127.29" y="363.73" width="10.54" height="29.81"/></g></svg>